<svg width="217" height="29" viewBox="0 0 217 29" fill="none" xmlns="http://www.w3.org/2000/svg">
<path d="M0.738636 4.63068V1.81818H20.375V4.63068H12.142V28H8.97159V4.63068H0.738636ZM22.82 28V8.36364H25.7347V11.3295H25.9393C26.2972 10.358 26.945 9.5696 27.8825 8.96449C28.82 8.35937 29.8768 8.05682 31.0529 8.05682C31.2745 8.05682 31.5515 8.06108 31.8839 8.0696C32.2163 8.07812 32.4677 8.09091 32.6381 8.10795V11.1761C32.5359 11.1506 32.3015 11.1122 31.935 11.0611C31.5771 11.0014 31.1978 10.9716 30.7972 10.9716C29.8427 10.9716 28.9904 11.1719 28.2404 11.5724C27.4989 11.9645 26.9109 12.5099 26.4762 13.2088C26.0501 13.8991 25.837 14.6875 25.837 15.5739V28H22.82ZM41.9929 28.4602C40.7486 28.4602 39.6193 28.2259 38.6051 27.7571C37.5909 27.2798 36.7855 26.5938 36.1889 25.6989C35.5923 24.7955 35.294 23.7045 35.294 22.4261C35.294 21.3011 35.5156 20.3892 35.9588 19.6903C36.402 18.983 36.9943 18.429 37.7358 18.0284C38.4773 17.6278 39.2955 17.3295 40.1903 17.1335C41.0938 16.929 42.0014 16.767 42.9134 16.6477C44.1065 16.4943 45.0739 16.3793 45.8153 16.3026C46.5653 16.2173 47.1108 16.0767 47.4517 15.8807C47.8011 15.6847 47.9759 15.3437 47.9759 14.858V14.7557C47.9759 13.4943 47.6307 12.5142 46.9403 11.8153C46.2585 11.1165 45.223 10.767 43.8338 10.767C42.3935 10.767 41.2642 11.0824 40.446 11.7131C39.6278 12.3437 39.0526 13.017 38.7202 13.733L35.8565 12.7102C36.3679 11.517 37.0497 10.5881 37.902 9.9233C38.7628 9.25 39.7003 8.78125 40.7145 8.51705C41.7372 8.24432 42.7429 8.10795 43.7315 8.10795C44.3622 8.10795 45.0866 8.18466 45.9048 8.33807C46.7315 8.48295 47.5284 8.78551 48.2955 9.24574C49.071 9.70597 49.7145 10.4006 50.2259 11.3295C50.7372 12.2585 50.9929 13.5028 50.9929 15.0625V28H47.9759V25.3409H47.8224C47.6179 25.767 47.277 26.223 46.7997 26.7088C46.3224 27.1946 45.6875 27.608 44.8949 27.9489C44.1023 28.2898 43.1349 28.4602 41.9929 28.4602ZM42.4531 25.75C43.6463 25.75 44.652 25.5156 45.4702 25.0469C46.2969 24.5781 46.919 23.973 47.3366 23.2315C47.7628 22.4901 47.9759 21.7102 47.9759 20.892V18.1307C47.848 18.2841 47.5668 18.4247 47.1321 18.5526C46.706 18.6719 46.2116 18.7784 45.6491 18.8722C45.0952 18.9574 44.554 19.0341 44.0256 19.1023C43.5057 19.1619 43.0838 19.2131 42.7599 19.2557C41.9759 19.358 41.2429 19.5241 40.5611 19.7543C39.8878 19.9759 39.3423 20.3125 38.9247 20.7642C38.5156 21.2074 38.3111 21.8125 38.3111 22.5795C38.3111 23.6278 38.6989 24.4205 39.4744 24.9574C40.2585 25.4858 41.2514 25.75 42.4531 25.75ZM59.5167 16.1875V28H56.4996V8.36364H59.4144V11.4318H59.6701C60.1303 10.4347 60.8292 9.63352 61.7667 9.02841C62.7042 8.41477 63.9144 8.10795 65.3974 8.10795C66.7269 8.10795 67.8903 8.38068 68.8874 8.92614C69.8846 9.46307 70.6602 10.2812 71.2141 11.3807C71.7681 12.4716 72.0451 13.8523 72.0451 15.5227V28H69.0281V15.7273C69.0281 14.1847 68.6275 12.983 67.8264 12.1222C67.0252 11.2528 65.9258 10.8182 64.5281 10.8182C63.565 10.8182 62.7042 11.027 61.9457 11.4446C61.1957 11.8622 60.6033 12.4716 60.1687 13.2727C59.734 14.0739 59.5167 15.0455 59.5167 16.1875ZM91.4673 12.7614L88.7571 13.5284C88.5866 13.0767 88.3352 12.6378 88.0028 12.2116C87.679 11.777 87.2358 11.419 86.6733 11.1378C86.1108 10.8565 85.3906 10.7159 84.5128 10.7159C83.3111 10.7159 82.3097 10.9929 81.5085 11.5469C80.7159 12.0923 80.3196 12.7869 80.3196 13.6307C80.3196 14.3807 80.5923 14.973 81.1378 15.4077C81.6832 15.8423 82.5355 16.2045 83.6946 16.4943L86.6094 17.2102C88.3651 17.6364 89.6733 18.2884 90.5341 19.1662C91.3949 20.0355 91.8253 21.1562 91.8253 22.5284C91.8253 23.6534 91.5014 24.6591 90.8537 25.5455C90.2145 26.4318 89.3196 27.1307 88.169 27.642C87.0185 28.1534 85.6804 28.4091 84.1548 28.4091C82.152 28.4091 80.4943 27.9744 79.1818 27.1051C77.8693 26.2358 77.0384 24.9659 76.6889 23.2955L79.5526 22.5795C79.8253 23.6364 80.3409 24.429 81.0994 24.9574C81.8665 25.4858 82.8679 25.75 84.1037 25.75C85.5099 25.75 86.6264 25.4517 87.4531 24.8551C88.2884 24.25 88.706 23.5256 88.706 22.6818C88.706 22 88.4673 21.429 87.9901 20.9688C87.5128 20.5 86.7798 20.1506 85.7912 19.9205L82.5185 19.1534C80.7202 18.7273 79.3991 18.0668 78.5554 17.1719C77.7202 16.2685 77.3026 15.1392 77.3026 13.7841C77.3026 12.6761 77.6136 11.696 78.2358 10.8438C78.8665 9.99148 79.723 9.32244 80.8054 8.83665C81.8963 8.35085 83.1321 8.10795 84.5128 8.10795C86.456 8.10795 87.9815 8.53409 89.0895 9.38636C90.206 10.2386 90.9986 11.3636 91.4673 12.7614ZM105.111 8.36364V10.9205H94.5259V8.36364H105.111ZM97.6964 28V5.65341C97.6964 4.52841 97.9606 3.59091 98.489 2.84091C99.0174 2.09091 99.7035 1.52841 100.547 1.15341C101.391 0.778407 102.282 0.590907 103.219 0.590907C103.961 0.590907 104.566 0.650567 105.034 0.769886C105.503 0.889203 105.853 0.999999 106.083 1.10227L105.213 3.71023C105.06 3.65909 104.847 3.59517 104.574 3.51847C104.31 3.44176 103.961 3.40341 103.526 3.40341C102.529 3.40341 101.809 3.65483 101.365 4.15767C100.931 4.66051 100.713 5.39773 100.713 6.36932V28H97.6964ZM116.764 28.4091C114.872 28.4091 113.24 27.9915 111.868 27.1562C110.504 26.3125 109.451 25.1364 108.71 23.6278C107.977 22.1108 107.61 20.3466 107.61 18.3352C107.61 16.3239 107.977 14.5511 108.71 13.017C109.451 11.4744 110.483 10.2727 111.804 9.41193C113.133 8.54261 114.684 8.10795 116.457 8.10795C117.48 8.10795 118.49 8.27841 119.487 8.61932C120.484 8.96023 121.392 9.5142 122.21 10.2812C123.028 11.0398 123.68 12.0455 124.166 13.2983C124.652 14.5511 124.895 16.0937 124.895 17.9261V19.2045H109.758V16.5966H121.826C121.826 15.4886 121.605 14.5 121.162 13.6307C120.727 12.7614 120.105 12.0753 119.295 11.5724C118.494 11.0696 117.548 10.8182 116.457 10.8182C115.255 10.8182 114.216 11.1165 113.338 11.7131C112.468 12.3011 111.799 13.0682 111.331 14.0142C110.862 14.9602 110.627 15.9744 110.627 17.0568V18.7955C110.627 20.2784 110.883 21.5355 111.395 22.5668C111.914 23.5895 112.635 24.3693 113.555 24.9062C114.475 25.4347 115.545 25.6989 116.764 25.6989C117.556 25.6989 118.272 25.5881 118.912 25.3665C119.559 25.1364 120.118 24.7955 120.586 24.3438C121.055 23.8835 121.417 23.3125 121.673 22.6307L124.588 23.4489C124.281 24.4375 123.765 25.3068 123.041 26.0568C122.316 26.7983 121.422 27.3778 120.356 27.7955C119.291 28.2045 118.093 28.4091 116.764 28.4091ZM129.484 28V8.36364H132.399V11.3295H132.603C132.961 10.358 133.609 9.5696 134.547 8.96449C135.484 8.35937 136.541 8.05682 137.717 8.05682C137.939 8.05682 138.216 8.06108 138.548 8.0696C138.88 8.07812 139.132 8.09091 139.302 8.10795V11.1761C139.2 11.1506 138.966 11.1122 138.599 11.0611C138.241 11.0014 137.862 10.9716 137.461 10.9716C136.507 10.9716 135.654 11.1719 134.904 11.5724C134.163 11.9645 133.575 12.5099 133.14 13.2088C132.714 13.8991 132.501 14.6875 132.501 15.5739V28H129.484ZM147.644 28L141.661 8.36364H144.831L149.076 23.3977H149.28L153.473 8.36364H156.695L160.837 23.3466H161.042L165.286 8.36364H168.456L162.473 28H159.507L155.212 12.9148H154.905L150.61 28H147.644ZM172.445 28V8.36364H175.462V28H172.445ZM173.979 5.09091C173.391 5.09091 172.884 4.89062 172.458 4.49006C172.04 4.08949 171.831 3.60795 171.831 3.04545C171.831 2.48295 172.04 2.00142 172.458 1.60085C172.884 1.20028 173.391 1 173.979 1C174.567 1 175.07 1.20028 175.488 1.60085C175.914 2.00142 176.127 2.48295 176.127 3.04545C176.127 3.60795 175.914 4.08949 175.488 4.49006C175.07 4.89062 174.567 5.09091 173.979 5.09091ZM194.897 12.7614L192.187 13.5284C192.016 13.0767 191.765 12.6378 191.433 12.2116C191.109 11.777 190.665 11.419 190.103 11.1378C189.54 10.8565 188.82 10.7159 187.942 10.7159C186.741 10.7159 185.739 10.9929 184.938 11.5469C184.146 12.0923 183.749 12.7869 183.749 13.6307C183.749 14.3807 184.022 14.973 184.567 15.4077C185.113 15.8423 185.965 16.2045 187.124 16.4943L190.039 17.2102C191.795 17.6364 193.103 18.2884 193.964 19.1662C194.825 20.0355 195.255 21.1562 195.255 22.5284C195.255 23.6534 194.931 24.6591 194.283 25.5455C193.644 26.4318 192.749 27.1307 191.599 27.642C190.448 28.1534 189.11 28.4091 187.585 28.4091C185.582 28.4091 183.924 27.9744 182.612 27.1051C181.299 26.2358 180.468 24.9659 180.119 23.2955L182.982 22.5795C183.255 23.6364 183.771 24.429 184.529 24.9574C185.296 25.4858 186.298 25.75 187.533 25.75C188.94 25.75 190.056 25.4517 190.883 24.8551C191.718 24.25 192.136 23.5256 192.136 22.6818C192.136 22 191.897 21.429 191.42 20.9688C190.942 20.5 190.21 20.1506 189.221 19.9205L185.948 19.1534C184.15 18.7273 182.829 18.0668 181.985 17.1719C181.15 16.2685 180.732 15.1392 180.732 13.7841C180.732 12.6761 181.043 11.696 181.665 10.8438C182.296 9.99148 183.153 9.32244 184.235 8.83665C185.326 8.35085 186.562 8.10795 187.942 8.10795C189.886 8.10795 191.411 8.53409 192.519 9.38636C193.636 10.2386 194.428 11.3636 194.897 12.7614ZM208.029 28.4091C206.137 28.4091 204.505 27.9915 203.133 27.1562C201.77 26.3125 200.717 25.1364 199.975 23.6278C199.243 22.1108 198.876 20.3466 198.876 18.3352C198.876 16.3239 199.243 14.5511 199.975 13.017C200.717 11.4744 201.748 10.2727 203.069 9.41193C204.399 8.54261 205.95 8.10795 207.723 8.10795C208.745 8.10795 209.755 8.27841 210.752 8.61932C211.75 8.96023 212.657 9.5142 213.475 10.2812C214.294 11.0398 214.946 12.0455 215.431 13.2983C215.917 14.5511 216.16 16.0937 216.16 17.9261V19.2045H201.024V16.5966H213.092C213.092 15.4886 212.87 14.5 212.427 13.6307C211.993 12.7614 211.37 12.0753 210.561 11.5724C209.76 11.0696 208.814 10.8182 207.723 10.8182C206.521 10.8182 205.481 11.1165 204.603 11.7131C203.734 12.3011 203.065 13.0682 202.596 14.0142C202.127 14.9602 201.893 15.9744 201.893 17.0568V18.7955C201.893 20.2784 202.149 21.5355 202.66 22.5668C203.18 23.5895 203.9 24.3693 204.821 24.9062C205.741 25.4347 206.811 25.6989 208.029 25.6989C208.822 25.6989 209.538 25.5881 210.177 25.3665C210.825 25.1364 211.383 24.7955 211.852 24.3438C212.321 23.8835 212.683 23.3125 212.939 22.6307L215.853 23.4489C215.547 24.4375 215.031 25.3068 214.306 26.0568C213.582 26.7983 212.687 27.3778 211.622 27.7955C210.556 28.2045 209.359 28.4091 208.029 28.4091Z" fill="white"/>
</svg>
