<svg width="205" height="28" viewBox="0 0 205 28" fill="none" xmlns="http://www.w3.org/2000/svg">
<path d="M0.582386 0.818181H6.38636L14.1591 19.7898H14.4659L22.2386 0.818181H28.0426V27H23.4915V9.01278H23.2486L16.0128 26.9233H12.6122L5.37642 8.97443H5.13352V27H0.582386V0.818181ZM33.2074 27V0.818181H50.2358V4.79403H37.9503V11.902H49.3537V15.8778H37.9503V23.0241H50.3381V27H33.2074ZM53.924 4.79403V0.818181H74.8132V4.79403H66.7209V27H62.0163V4.79403H53.924ZM79.0384 27H73.9759L83.1932 0.818181H89.0483L98.2784 27H93.2159L86.223 6.1875H86.0185L79.0384 27ZM79.2045 16.7344H93.0114V20.544H79.2045V16.7344ZM101.727 0.818181H107.531L115.304 19.7898H115.61L123.383 0.818181H129.187V27H124.636V9.01278H124.393L117.157 26.9233H113.757L106.521 8.97443H106.278V27H101.727V0.818181ZM137.714 27H132.652L141.869 0.818181H147.724L156.954 27H151.892L144.899 6.1875H144.694L137.714 27ZM137.88 16.7344H151.687V20.544H137.88V16.7344ZM174.21 8.01562C174.09 6.89915 173.587 6.02983 172.701 5.40767C171.823 4.78551 170.681 4.47443 169.275 4.47443C168.286 4.47443 167.438 4.62358 166.731 4.92188C166.023 5.22017 165.482 5.625 165.107 6.13636C164.732 6.64773 164.54 7.23153 164.532 7.88778C164.532 8.43324 164.656 8.90625 164.903 9.30682C165.158 9.70739 165.504 10.0483 165.938 10.3295C166.373 10.6023 166.854 10.8324 167.383 11.0199C167.911 11.2074 168.444 11.3651 168.981 11.4929L171.435 12.1065C172.424 12.3366 173.374 12.6477 174.286 13.0398C175.207 13.4318 176.029 13.9261 176.754 14.5227C177.487 15.1193 178.066 15.8395 178.492 16.6832C178.918 17.527 179.131 18.5156 179.131 19.6491C179.131 21.1832 178.739 22.5341 177.955 23.7017C177.171 24.8608 176.038 25.7685 174.555 26.4247C173.08 27.0724 171.295 27.3963 169.198 27.3963C167.161 27.3963 165.393 27.081 163.893 26.4503C162.401 25.8196 161.234 24.8991 160.39 23.6889C159.555 22.4787 159.103 21.0043 159.035 19.2656H163.701C163.769 20.1776 164.05 20.9361 164.545 21.5412C165.039 22.1463 165.683 22.598 166.475 22.8963C167.276 23.1946 168.171 23.3438 169.16 23.3438C170.191 23.3438 171.094 23.1903 171.87 22.8835C172.654 22.5682 173.268 22.1335 173.711 21.5795C174.154 21.017 174.38 20.3608 174.388 19.6108C174.38 18.929 174.18 18.3665 173.788 17.9233C173.396 17.4716 172.846 17.0966 172.138 16.7983C171.44 16.4915 170.621 16.2187 169.684 15.9801L166.705 15.2131C164.549 14.6591 162.844 13.8196 161.592 12.6946C160.347 11.5611 159.725 10.0568 159.725 8.18182C159.725 6.6392 160.143 5.28835 160.978 4.12926C161.822 2.97017 162.968 2.07102 164.417 1.43182C165.866 0.78409 167.506 0.460226 169.339 0.460226C171.197 0.460226 172.825 0.78409 174.222 1.43182C175.629 2.07102 176.732 2.96165 177.533 4.10369C178.335 5.23721 178.748 6.54119 178.773 8.01562H174.21ZM183.36 27V0.818181H188.103V12.848H188.422L198.637 0.818181H204.428L194.303 12.5668L204.517 27H198.816L191.005 15.7756L188.103 19.2017V27H183.36Z" fill="white"/>
</svg>
