<svg width="158" height="28" viewBox="0 0 158 28" fill="none" xmlns="http://www.w3.org/2000/svg">
<path d="M0.582386 27V0.818181H10.6051C12.4972 0.818181 14.0696 1.11648 15.3224 1.71307C16.5838 2.30114 17.5256 3.10653 18.1477 4.12926C18.7784 5.15199 19.0938 6.31108 19.0938 7.60653C19.0938 8.67188 18.8892 9.58381 18.4801 10.3423C18.071 11.0923 17.5213 11.7017 16.831 12.1705C16.1406 12.6392 15.3693 12.9759 14.517 13.1804V13.4361C15.446 13.4872 16.3366 13.7727 17.1889 14.2926C18.0497 14.804 18.7528 15.5284 19.2983 16.4659C19.8438 17.4034 20.1165 18.5369 20.1165 19.8665C20.1165 21.2216 19.7884 22.4403 19.1321 23.5227C18.4759 24.5966 17.4872 25.4446 16.1662 26.0668C14.8452 26.6889 13.1832 27 11.1804 27H0.582386ZM5.32528 23.0369H10.4261C12.1477 23.0369 13.3878 22.7088 14.1463 22.0526C14.9134 21.3878 15.2969 20.5355 15.2969 19.4957C15.2969 18.7202 15.1051 18.0213 14.7216 17.3991C14.3381 16.7685 13.7926 16.2741 13.0852 15.9162C12.3778 15.5497 11.5341 15.3665 10.554 15.3665H5.32528V23.0369ZM5.32528 11.9531H10.017C10.8352 11.9531 11.5724 11.804 12.2287 11.5057C12.8849 11.1989 13.4006 10.7685 13.7756 10.2145C14.1591 9.65199 14.3509 8.98722 14.3509 8.22017C14.3509 7.20596 13.9929 6.37074 13.277 5.71449C12.5696 5.05824 11.517 4.73011 10.1193 4.73011H5.32528V11.9531ZM28.9854 0.818181V27H24.2425V0.818181H28.9854ZM55.6371 0.818181V27H51.4183L39.0817 9.16619H38.8643V27H34.1214V0.818181H38.3658L50.6896 18.6648H50.9197V0.818181H55.6371ZM64.1673 27H59.1048L68.3221 0.818181H74.1772L83.4073 27H78.3448L71.3519 6.1875H71.1474L64.1673 27ZM64.3335 16.7344H78.1403V20.544H64.3335V16.7344ZM108.371 0.818181V27H104.153L91.8161 9.16619H91.5987V27H86.8558V0.818181H91.1001L103.424 18.6648H103.654V0.818181H108.371ZM135.95 9.65199H131.169C131.032 8.8679 130.781 8.17329 130.414 7.56818C130.048 6.95454 129.592 6.43466 129.047 6.00852C128.501 5.58239 127.879 5.26278 127.18 5.04972C126.49 4.82813 125.744 4.71733 124.943 4.71733C123.52 4.71733 122.258 5.07528 121.159 5.79119C120.059 6.49858 119.199 7.53835 118.576 8.91051C117.954 10.2741 117.643 11.9403 117.643 13.9091C117.643 15.9119 117.954 17.5994 118.576 18.9716C119.207 20.3352 120.068 21.3665 121.159 22.0653C122.258 22.7557 123.515 23.1009 124.93 23.1009C125.714 23.1009 126.447 22.9986 127.129 22.794C127.819 22.581 128.437 22.2699 128.983 21.8608C129.537 21.4517 130.001 20.9489 130.376 20.3523C130.76 19.7557 131.024 19.0739 131.169 18.3068L135.95 18.3324C135.771 19.5767 135.383 20.7443 134.787 21.8352C134.199 22.9261 133.427 23.8892 132.473 24.7244C131.518 25.5511 130.402 26.1989 129.123 26.6676C127.845 27.1278 126.426 27.358 124.866 27.358C122.565 27.358 120.511 26.8253 118.704 25.7599C116.897 24.6946 115.474 23.1562 114.434 21.1449C113.395 19.1335 112.875 16.7216 112.875 13.9091C112.875 11.0881 113.399 8.67614 114.447 6.6733C115.495 4.66193 116.923 3.12358 118.73 2.05824C120.537 0.992897 122.582 0.460226 124.866 0.460226C126.324 0.460226 127.679 0.664772 128.931 1.07386C130.184 1.48295 131.301 2.08381 132.281 2.87642C133.261 3.66051 134.066 4.62358 134.697 5.76562C135.336 6.89915 135.754 8.1946 135.95 9.65199ZM140.293 27V0.818181H157.322V4.79403H145.036V11.902H156.44V15.8778H145.036V23.0241H157.424V27H140.293Z" fill="white"/>
</svg>
